<svg xmlns="http://www.w3.org/2000/svg" xmlns:xlink="http://www.w3.org/1999/xlink" width="1024" zoomAndPan="magnify" viewBox="0 0 768 767.999994" height="1024" preserveAspectRatio="xMidYMid meet" version="1.0"><defs><g/><clipPath id="b9834a90a7"><path d="M 384 0 C 171.921875 0 0 171.921875 0 384 C 0 596.078125 171.921875 768 384 768 C 596.078125 768 768 596.078125 768 384 C 768 171.921875 596.078125 0 384 0 Z M 384 0 " clip-rule="nonzero"/></clipPath></defs><g clip-path="url(#b9834a90a7)"><rect x="-76.8" width="921.6" fill="#ffbd59" y="-76.799999" height="921.599993" fill-opacity="1"/></g><g fill="#000000" fill-opacity="1"><g transform="translate(360.966404, 724.805947)"><g><path d="M -126.859375 -516.609375 C -121.648438 -521.816406 -105.484375 -510.859375 -78.359375 -483.734375 C -51.242188 -456.617188 -40.289062 -440.457031 -45.5 -435.25 L -129.609375 -351.140625 L -77.203125 -298.734375 L -21.125 -354.8125 C -15.914062 -360.019531 -1.441406 -350.75 22.296875 -327 C 46.046875 -303.257812 55.46875 -288.9375 50.5625 -284.03125 L -5.96875 -227.5 L 104.78125 -116.75 C 109.082031 -112.445312 106.175781 -103.863281 96.0625 -91 C 85.945312 -78.132812 77.0625 -67.875 69.40625 -60.21875 L 46.875 -39.53125 C 30.03125 -26.351562 19.460938 -21.910156 15.171875 -26.203125 L -289.078125 -330.453125 C -293.984375 -335.359375 -296.207031 -339.570312 -295.75 -343.09375 C -295.300781 -346.625 -293.082031 -350.382812 -289.09375 -354.375 Z M -126.859375 -516.609375 "/></g></g></g><g fill="#000000" fill-opacity="1"><g transform="translate(407.027761, 43.186308)"><g><path d="M 126.859375 516.609375 C 121.648438 521.816406 105.484375 510.859375 78.359375 483.734375 C 51.242188 456.617188 40.289062 440.457031 45.5 435.25 L 129.609375 351.140625 L 77.203125 298.734375 L 21.125 354.8125 C 15.914062 360.019531 1.441406 350.75 -22.296875 327 C -46.046875 303.257812 -55.46875 288.9375 -50.5625 284.03125 L 5.96875 227.5 L -104.78125 116.75 C -109.082031 112.445312 -106.175781 103.863281 -96.0625 91 C -85.945312 78.132812 -77.0625 67.875 -69.40625 60.21875 L -46.875 39.53125 C -30.03125 26.351562 -19.460938 21.910156 -15.171875 26.203125 L 289.078125 330.453125 C 293.984375 335.359375 296.207031 339.570312 295.75 343.09375 C 295.300781 346.625 293.082031 350.382812 289.09375 354.375 Z M 126.859375 516.609375 "/></g></g></g></svg>