<svg xmlns="http://www.w3.org/2000/svg" xmlns:xlink="http://www.w3.org/1999/xlink" width="1024" zoomAndPan="magnify" viewBox="0 0 768 767.999994" height="1024" preserveAspectRatio="xMidYMid meet" version="1.0"><defs><g/><clipPath id="002259c23f"><path d="M 384 0 C 171.921875 0 0 171.921875 0 384 C 0 596.078125 171.921875 768 384 768 C 596.078125 768 768 596.078125 768 384 C 768 171.921875 596.078125 0 384 0 Z M 384 0 " clip-rule="nonzero"/></clipPath></defs><g clip-path="url(#002259c23f)"><rect x="-76.8" width="921.6" fill="#ff914d" y="-76.799999" height="921.599993" fill-opacity="1"/></g><g fill="#f9f7dc" fill-opacity="1"><g transform="translate(77.200194, 612.37499)"><g><path d="M 275.59375 -455 C 282.96875 -455 286.65625 -435.820312 286.65625 -397.46875 C 286.65625 -359.125 282.96875 -339.953125 275.59375 -339.953125 L 156.65625 -339.953125 L 156.65625 -265.84375 L 235.953125 -265.84375 C 243.316406 -265.84375 247 -249.050781 247 -215.46875 C 247 -181.882812 243.53125 -165.09375 236.59375 -165.09375 L 156.65625 -165.09375 L 156.65625 -8.453125 C 156.65625 -2.378906 148.53125 1.628906 132.28125 3.578125 C 116.03125 5.523438 102.488281 6.5 91.65625 6.5 L 61.09375 5.203125 C 39.863281 2.597656 29.25 -1.734375 29.25 -7.796875 L 29.25 -438.09375 C 29.25 -445.03125 30.65625 -449.582031 33.46875 -451.75 C 36.289062 -453.914062 40.519531 -455 46.15625 -455 Z M 275.59375 -455 "/></g></g></g><g fill="#f9f7dc" fill-opacity="1"><g transform="translate(383.997257, 612.37499)"><g><path d="M 275.59375 -455 C 282.96875 -455 286.65625 -435.820312 286.65625 -397.46875 C 286.65625 -359.125 282.96875 -339.953125 275.59375 -339.953125 L 156.65625 -339.953125 L 156.65625 -265.84375 L 235.953125 -265.84375 C 243.316406 -265.84375 247 -249.050781 247 -215.46875 C 247 -181.882812 243.53125 -165.09375 236.59375 -165.09375 L 156.65625 -165.09375 L 156.65625 -8.453125 C 156.65625 -2.378906 148.53125 1.628906 132.28125 3.578125 C 116.03125 5.523438 102.488281 6.5 91.65625 6.5 L 61.09375 5.203125 C 39.863281 2.597656 29.25 -1.734375 29.25 -7.796875 L 29.25 -438.09375 C 29.25 -445.03125 30.65625 -449.582031 33.46875 -451.75 C 36.289062 -453.914062 40.519531 -455 46.15625 -455 Z M 275.59375 -455 "/></g></g></g></svg>